# Blender v3.2.0 OBJ File: ''
# www.blender.org
mtllib grass1x1.mtl
g grass1x1
v 0.034872 0.354709 -0.013027
v -0.075740 0.898141 -0.084837
v -0.051156 0.354709 0.044733
v 0.443075 0.301011 0.092099
v 0.400156 0.790828 0.178692
v 0.492397 0.301011 0.149837
v 0.104880 0.312523 0.117094
v 0.328691 0.797604 0.138979
v 0.128604 0.312666 0.035349
v 0.000005 -0.049581 0.030037
v 0.039090 -0.050058 0.055825
v -0.047827 0.284517 0.100928
v -0.032346 0.756140 0.229412
v 0.027306 0.284517 0.114576
v -0.479941 0.268882 0.118591
v -0.381143 0.726679 0.112073
v -0.464231 0.268882 0.058223
v 0.478018 -0.049549 0.113382
v -0.003259 -0.048437 0.095635
v -0.481888 -0.049959 0.088284
v 0.370078 0.238769 -0.181828
v 0.327882 0.664910 -0.096893
v 0.410614 0.238769 -0.143246
v 0.400328 -0.048567 -0.167565
v 0.303086 0.289006 0.230979
v 0.143925 0.753530 0.211601
v 0.273281 0.287626 0.299301
v 0.407304 0.261807 0.301237
v 0.476492 0.712539 0.232955
v 0.380206 0.261807 0.246316
v 0.344867 -0.049552 0.283945
v 0.387000 -0.049966 0.279485
v 0.348398 0.232038 0.353122
v 0.414365 0.647972 0.439294
v 0.399899 0.231463 0.333993
v 0.367828 -0.048558 0.325161
v 0.130774 0.323275 0.415352
v 0.237154 0.826975 0.321703
v 0.103191 0.321488 0.340098
v 0.026746 0.290525 0.446875
v 0.067738 0.769935 0.543033
v 0.092377 0.290525 0.441447
v 0.081529 -0.049568 0.398628
v 0.056594 -0.050018 0.435394
v 0.052994 0.280290 0.347402
v -0.046937 0.757573 0.308734
v 0.013790 0.280290 0.397007
v 0.039393 -0.048490 0.381829
v -0.236132 0.353914 0.306275
v -0.276346 0.891652 0.178438
v -0.321605 0.353145 0.301255
v -0.251281 0.318413 0.399667
v -0.141317 0.825674 0.380378
v -0.240992 0.318413 0.330088
v -0.278237 -0.049573 0.337054
v -0.257275 -0.050033 0.365939
v -0.321343 0.284459 0.408459
v -0.304468 0.756026 0.514057
v -0.258870 0.284459 0.417337
v -0.284167 -0.048470 0.401615
v -0.396534 0.296600 -0.287828
v -0.549340 0.786488 -0.311973
v -0.436958 0.295180 -0.213897
v -0.310610 0.265704 -0.220679
v -0.236118 0.733660 -0.301460
v -0.344129 0.265704 -0.281250
v -0.374880 -0.049512 -0.235134
v -0.333172 -0.049968 -0.245527
v -0.381271 0.235323 -0.167351
v -0.311475 0.671341 -0.088566
v -0.324698 0.235323 -0.192980
v -0.353708 -0.048421 -0.189323
v 0.035770 0.343636 -0.346735
v 0.019801 0.876013 -0.451974
v -0.045201 0.343636 -0.367679
v -0.016303 0.308249 -0.272341
v 0.072225 0.805360 -0.208662
v 0.039341 0.308249 -0.312638
v -0.007507 -0.049607 -0.348572
v 0.007268 -0.050142 -0.295981
v -0.091631 0.274168 -0.329819
v -0.182180 0.731309 -0.243767
v -0.060042 0.274620 -0.276895
v -0.054934 -0.048326 -0.310479
v 0.376272 0.297531 -0.449418
v 0.353185 0.783875 -0.542441
v 0.301930 0.297531 -0.461448
v 0.335784 0.265668 -0.378379
v 0.420461 0.720256 -0.328664
v 0.382314 0.265668 -0.419145
v 0.336625 -0.049561 -0.444781
v 0.352569 -0.049997 -0.403251
v 0.275808 0.235804 -0.429961
v 0.220258 0.658999 -0.354061
v 0.308924 0.235804 -0.385425
v 0.301040 -0.048518 -0.410319
v 0.107560 0.211527 -0.143307
v 0.034201 0.611999 -0.163453
v 0.070362 0.211527 -0.096518
v 0.141011 0.186236 -0.087692
v 0.208310 0.561503 -0.127000
v 0.130863 0.186236 -0.135733
v 0.097066 -0.049501 -0.112440
v 0.128061 -0.049808 -0.107923
v 0.082013 0.162533 -0.066207
v 0.112979 0.512882 0.001721
v 0.125702 0.162533 -0.071835
v 0.105968 -0.048766 -0.078716
v 0.320075 0.140863 -0.100308
v 0.260185 0.470780 -0.127597
v 0.281872 0.140863 -0.065457
v 0.341002 0.120973 -0.048208
v 0.403887 0.431067 -0.072532
v 0.338937 0.120973 -0.090636
v 0.305621 -0.049485 -0.077037
v 0.334832 -0.049758 -0.067864
v 0.286678 0.101790 -0.029643
v 0.301330 0.389052 0.049207
v 0.324752 0.101906 -0.028019
v 0.308975 -0.048832 -0.043108
v 0.201182 0.257922 -0.338272
v 0.153569 0.561555 -0.430195
v 0.149312 0.260362 -0.339068
v 0.220303 0.166118 -0.216475
v 0.326585 0.515686 -0.190128
v 0.232802 0.168771 -0.261139
v 0.173763 -0.049507 -0.276884
v 0.200014 -0.049826 -0.257527
v 0.141135 0.147339 -0.243349
v 0.136691 0.482582 -0.172858
v 0.180102 0.147339 -0.228567
v 0.165392 -0.048742 -0.241543
v -0.175540 0.195431 0.469032
v -0.230236 0.578637 0.410449
v -0.227627 0.195736 0.492000
v -0.200795 0.171680 -0.465495
v -0.129532 0.532410 -0.444732
v -0.174238 0.171680 -0.503985
v -0.198781 -0.049540 0.490685
v -0.189545 -0.049929 -0.485425
v -0.254300 0.149105 -0.492197
v -0.280963 0.486104 -0.426287
v -0.221785 0.149105 -0.465687
v -0.235743 -0.048607 -0.480273
v -0.340729 0.220903 0.319391
v -0.445979 0.627957 0.340612
v -0.345480 0.221647 0.387097
v -0.177922 0.271577 -0.012847
v -0.055672 0.766242 -0.056859
v -0.183249 0.271754 -0.084815
v -0.316412 -0.049516 0.359507
v -0.201553 -0.046158 -0.045425
v 0.504203 0.171678 0.051517
v 0.457551 0.529406 -0.027352
v 0.455947 0.171789 0.064693
v 0.480053 -0.048385 0.072225
v -0.287549 0.156966 0.151690
v -0.331100 0.496423 0.054911
v -0.342397 0.156140 0.157166
v -0.295943 0.206905 0.230568
v -0.226304 0.462814 0.248382
v -0.271472 0.136857 0.192464
v -0.308854 -0.049506 0.181944
v -0.287434 -0.049822 0.210295
v -0.348585 0.187031 0.206437
v -0.372280 0.422048 0.271083
v -0.316265 0.187031 0.231055
v -0.328548 -0.048748 0.216262
v -0.078331 0.218201 0.193186
v -0.135240 0.625337 0.140417
v -0.134025 0.233573 0.218019
v -0.062270 0.192401 0.248520
v 0.012136 0.573823 0.220493
v -0.064262 0.192401 0.198468
v -0.102507 -0.049508 0.215752
v -0.071371 -0.049828 0.225832
v -0.127362 0.167994 0.259035
v -0.142774 0.519751 0.351593
v -0.087464 0.167177 0.279698
v -0.099242 -0.048740 0.252048
v -0.138264 0.308324 -0.206747
v -0.226759 0.805444 -0.163890
v -0.134611 0.308324 -0.129577
v -0.052696 0.275636 -0.170949
v -0.016594 0.740179 -0.264991
v -0.101763 0.275636 -0.211197
v -0.122308 -0.049544 -0.167798
v -0.082054 -0.049942 -0.180993
v -0.103006 0.245000 -0.110272
v -0.026738 0.677336 -0.051167
v -0.056401 0.245000 -0.142976
v -0.083080 -0.048590 -0.138857
v -0.299179 0.298302 -0.072986
v -0.451055 0.815962 0.003199
v -0.280602 0.298363 0.012875
v -0.235216 -0.049516 -0.039769
v 0.458749 0.316824 -0.190313
v 0.530181 0.813067 -0.326025
v 0.408528 0.315574 -0.239542
v 0.411614 -0.050033 -0.179336
vt 0.034909 0.503926
vt 0.195426 0.007749
vt 0.355960 0.503927
vt 0.034909 0.503926
vt 0.195426 0.007749
vt 0.355960 0.503927
vt 0.419545 0.541654
vt 0.551407 0.081325
vt 0.683271 0.541654
vt 0.195426 0.990400
vt 0.551408 0.990762
vt 0.737673 0.577239
vt 0.855993 0.153635
vt 0.974272 0.577237
vt 0.419545 0.541654
vt 0.551407 0.081325
vt 0.683271 0.541654
vt 0.195426 0.990400
vt 0.855993 0.989141
vt 0.551408 0.990762
vt 0.737673 0.577239
vt 0.855993 0.153635
vt 0.974272 0.577237
vt 0.855993 0.989141
vt 0.034909 0.503926
vt 0.195426 0.007749
vt 0.355960 0.503927
vt 0.419545 0.541654
vt 0.551407 0.081325
vt 0.683271 0.541654
vt 0.195426 0.990400
vt 0.551408 0.990762
vt 0.737673 0.577239
vt 0.855993 0.153635
vt 0.974272 0.577237
vt 0.855993 0.989141
vt 0.034909 0.503926
vt 0.195426 0.007749
vt 0.355960 0.503927
vt 0.419545 0.541654
vt 0.551407 0.081325
vt 0.683271 0.541654
vt 0.195426 0.990400
vt 0.551408 0.990762
vt 0.737673 0.577239
vt 0.855993 0.153635
vt 0.974272 0.577237
vt 0.855993 0.989141
vt 0.034909 0.503926
vt 0.195426 0.007749
vt 0.355960 0.503927
vt 0.419545 0.541654
vt 0.551407 0.081325
vt 0.683271 0.541654
vt 0.195426 0.990400
vt 0.551408 0.990762
vt 0.737673 0.577239
vt 0.855993 0.153635
vt 0.974272 0.577237
vt 0.855993 0.989141
vt 0.034909 0.503926
vt 0.195426 0.007749
vt 0.355960 0.503927
vt 0.419545 0.541654
vt 0.551407 0.081325
vt 0.683271 0.541654
vt 0.195426 0.990400
vt 0.551408 0.990762
vt 0.737673 0.577239
vt 0.855993 0.153635
vt 0.974272 0.577237
vt 0.855993 0.989141
vt 0.034909 0.503926
vt 0.195426 0.007749
vt 0.355960 0.503927
vt 0.419545 0.541654
vt 0.551407 0.081325
vt 0.683271 0.541654
vt 0.195426 0.990400
vt 0.551408 0.990762
vt 0.737673 0.577239
vt 0.855993 0.153635
vt 0.974272 0.577237
vt 0.855993 0.989141
vt 0.034909 0.503926
vt 0.195426 0.007749
vt 0.355960 0.503927
vt 0.419545 0.541654
vt 0.551407 0.081325
vt 0.683271 0.541654
vt 0.195426 0.990400
vt 0.551408 0.990762
vt 0.737673 0.577239
vt 0.855993 0.153635
vt 0.974272 0.577237
vt 0.855993 0.989141
vt 0.034909 0.503926
vt 0.195426 0.007749
vt 0.355960 0.503927
vt 0.419545 0.541654
vt 0.551407 0.081325
vt 0.683271 0.541654
vt 0.195426 0.990400
vt 0.551408 0.990762
vt 0.737673 0.577239
vt 0.855993 0.153635
vt 0.974272 0.577237
vt 0.855993 0.989141
vt 0.034909 0.503926
vt 0.195426 0.007749
vt 0.355960 0.503927
vt 0.419545 0.541654
vt 0.551407 0.081325
vt 0.683271 0.541654
vt 0.195426 0.990400
vt 0.551408 0.990762
vt 0.737673 0.577239
vt 0.855993 0.153635
vt 0.974272 0.577237
vt 0.855993 0.989141
vt 0.034909 0.503926
vt 0.195426 0.007749
vt 0.355960 0.503927
vt 0.419545 0.541654
vt 0.551407 0.081325
vt 0.683271 0.541654
vt 0.195426 0.990400
vt 0.551408 0.990762
vt 0.737673 0.577239
vt 0.855993 0.153635
vt 0.974272 0.577237
vt 0.855993 0.989141
vt 0.034909 0.503926
vt 0.195426 0.007749
vt 0.355960 0.503927
vt 0.419545 0.541654
vt 0.551407 0.081325
vt 0.683271 0.541654
vt 0.195426 0.990400
vt 0.551408 0.990762
vt 0.737673 0.577239
vt 0.855993 0.153635
vt 0.974272 0.577237
vt 0.855993 0.989141
vt 0.034909 0.503926
vt 0.195426 0.007749
vt 0.355960 0.503927
vt 0.419545 0.541654
vt 0.551407 0.081325
vt 0.683271 0.541654
vt 0.195426 0.990400
vt 0.551408 0.990762
vt 0.737673 0.577239
vt 0.855993 0.153635
vt 0.974272 0.577237
vt 0.855993 0.989141
vt 0.034909 0.503926
vt 0.195426 0.007749
vt 0.355960 0.503927
vt 0.419545 0.541654
vt 0.551407 0.081325
vt 0.683271 0.541654
vt 0.195426 0.990400
vt 0.551408 0.990762
vt 0.737673 0.577239
vt 0.855993 0.153635
vt 0.974272 0.577237
vt 0.855993 0.989141
vt 0.034909 0.503926
vt 0.195426 0.007749
vt 0.355960 0.503927
vt 0.419545 0.541654
vt 0.551407 0.081325
vt 0.683271 0.541654
vt 0.195426 0.990400
vt 0.551408 0.990762
vt 0.737673 0.577239
vt 0.855993 0.153635
vt 0.974272 0.577237
vt 0.855993 0.989141
vt 0.034909 0.503926
vt 0.195426 0.007749
vt 0.355960 0.503927
vt 0.419545 0.541654
vt 0.551407 0.081325
vt 0.683271 0.541654
vt 0.195426 0.990400
vt 0.551408 0.990762
vt 0.737673 0.577239
vt 0.855993 0.153635
vt 0.974272 0.577237
vt 0.855993 0.989141
vt 0.034909 0.503926
vt 0.195426 0.007749
vt 0.355960 0.503927
vt 0.195426 0.990400
vt 0.419545 0.541654
vt 0.551407 0.081325
vt 0.683271 0.541654
vt 0.551408 0.990762
vn 0.0028 0.9999 0.0125
vn 0.0309 0.9985 0.0462
vn 0.0090 0.9877 0.1561
vn 0.0268 0.9989 -0.0374
vn 0.0727 0.9954 -0.0620
vn 0.1871 0.9817 -0.0367
vn 0.1721 0.9838 0.0504
vn 0.1192 0.9922 0.0369
vn 0.0490 0.9971 -0.0591
vn -0.8015 0.0255 0.5975
vn 0.2370 0.0227 -0.9712
vn 0.0031 1.0000 -0.0069
vn 0.0100 0.9984 -0.0554
vn 0.0988 0.9821 -0.1604
vn -0.0388 0.9992 0.0008
vn -0.0967 0.9950 -0.0252
vn -0.1573 0.9793 -0.1274
vn 0.6856 0.0354 0.7271
vn 0.9904 0.0324 0.1344
vn 0.2070 0.0211 -0.9781
vn 0.0228 0.9989 -0.0406
vn 0.0710 0.9947 -0.0747
vn 0.2038 0.9742 -0.0974
vn 0.7538 0.0402 0.6559
vn -0.0894 0.9955 -0.0311
vn -0.0475 0.9989 -0.0004
vn -0.0188 0.9933 0.1142
vn -0.0295 0.9992 0.0265
vn -0.0901 0.9949 0.0444
vn -0.2033 0.9791 0.0068
vn -0.3592 0.0229 0.9330
vn -0.4832 0.0213 -0.8752
vn -0.0049 0.9999 -0.0098
vn -0.0141 0.9976 -0.0678
vn 0.0233 0.9799 -0.1980
vn 0.9210 0.0300 -0.3883
vn 0.0249 0.9995 -0.0217
vn -0.0257 0.9996 -0.0144
vn -0.1256 0.9891 -0.0766
vn -0.0130 0.9993 -0.0358
vn -0.0080 0.9952 -0.0979
vn 0.0678 0.9794 -0.1903
vn -0.3873 0.0169 -0.9218
vn 0.9915 0.0223 -0.1282
vn 0.0418 0.9989 0.0192
vn 0.0795 0.9949 0.0627
vn 0.1158 0.9743 0.1932
vn -0.5838 0.0392 0.8109
vn 0.0010 1.0000 -0.0037
vn -0.0118 0.9989 0.0458
vn -0.1082 0.9878 0.1123
vn -0.0357 0.9994 0.0042
vn -0.0954 0.9953 -0.0142
vn -0.1679 0.9798 -0.1083
vn -0.9995 0.0298 -0.0113
vn 0.1006 0.0224 -0.9947
vn -0.0042 0.9991 -0.0433
vn 0.0139 0.9951 -0.0983
vn 0.1077 0.9748 -0.1952
vn 0.9945 0.0413 0.0962
vn -0.0603 0.9980 -0.0163
vn -0.0214 0.9997 0.0113
vn 0.0022 0.9921 0.1252
vn -0.0190 0.9997 0.0168
vn -0.0728 0.9965 0.0402
vn -0.1896 0.9818 0.0142
vn -0.4380 0.0124 0.8989
vn -0.5241 0.0159 -0.8515
vn -0.0195 0.9994 -0.0270
vn -0.0355 0.9963 -0.0783
vn -0.0128 0.9769 -0.2133
vn 0.8909 0.0315 -0.4531
vn -0.0018 0.9989 0.0466
vn -0.0234 0.9956 0.0902
vn -0.1317 0.9815 0.1388
vn -0.0302 0.9992 -0.0252
vn -0.0569 0.9953 -0.0787
vn -0.0420 0.9791 -0.1991
vn -0.9788 0.0345 -0.2020
vn 0.7817 0.0248 -0.6232
vn -0.0102 0.9998 -0.0145
vn 0.0410 0.9986 -0.0330
vn 0.1796 0.9835 -0.0227
vn 0.5491 0.0438 0.8346
vn 0.0036 0.9989 0.0470
vn -0.0154 0.9954 0.0944
vn -0.1193 0.9814 0.1503
vn -0.0333 0.9992 -0.0221
vn -0.0659 0.9950 -0.0754
vn -0.0595 0.9790 -0.1950
vn -0.9932 0.0346 -0.1108
vn 0.7208 0.0220 -0.6928
vn 0.0307 0.9988 -0.0371
vn 0.0829 0.9946 -0.0617
vn 0.2187 0.9738 -0.0624
vn 0.6317 0.0375 0.7743
vn 0.0466 0.9987 0.0193
vn 0.0798 0.9948 0.0636
vn 0.0728 0.9808 0.1810
vn -0.0384 0.9990 0.0215
vn -0.1054 0.9942 0.0222
vn -0.2024 0.9782 -0.0455
vn -0.5829 0.0329 0.8119
vn -0.2515 0.0168 -0.9677
vn -0.0205 0.9986 -0.0480
vn -0.0143 0.9938 -0.1107
vn 0.0546 0.9730 -0.2243
vn 0.9844 0.0396 -0.1715
vn 0.0364 0.9991 0.0236
vn 0.0630 0.9956 0.0692
vn 0.0405 0.9820 0.1843
vn -0.0351 0.9993 0.0125
vn -0.0988 0.9951 0.0047
vn -0.1867 0.9795 -0.0756
vn -0.7043 0.0213 0.7096
vn -0.0949 0.0071 -0.9955
vn -0.0165 0.9998 0.0116
vn -0.0017 0.9989 -0.0472
vn 0.0846 0.9849 -0.1513
vn 0.9995 0.0323 -0.0009
vn -0.0603 0.9953 -0.0756
vn -0.0655 0.9977 -0.0181
vn -0.1495 0.9879 0.0415
vn 0.0447 0.9953 0.0860
vn -0.0139 0.9984 0.0553
vn -0.0708 0.9962 -0.0511
vn -0.9978 0.0572 0.0339
vn 0.2261 0.0792 -0.9709
vn 0.0052 0.9984 -0.0555
vn 0.0403 0.9935 -0.1065
vn 0.1559 0.9721 -0.1752
vn 0.9494 0.0351 0.3122
vn 0.0305 0.9993 0.0203
vn 0.0371 0.9968 0.0712
vn -0.0225 0.9840 0.1767
vn -0.0479 0.9987 -0.0163
vn -0.0901 0.9940 -0.0623
vn -0.1122 0.9767 -0.1828
vn -0.8935 0.0353 0.4476
vn 0.5289 0.0208 -0.8484
vn 0.0256 0.9982 -0.0544
vn 0.0717 0.9935 -0.0881
vn 0.2066 0.9710 -0.1205
vn 0.8028 0.0263 0.5956
vn -0.0227 0.9995 -0.0217
vn 0.0268 0.9996 -0.0112
vn 0.0928 0.9921 0.0840
vn 0.0073 0.9999 0.0090
vn -0.0544 0.9985 0.0064
vn -0.1469 0.9868 -0.0678
vn -0.0226 0.0433 0.9988
vn -0.1194 0.0164 -0.9927
vn 0.0137 0.9999 0.0104
vn 0.0207 0.9975 0.0674
vn -0.0253 0.9807 0.1941
vn -0.9515 0.0368 0.3054
vn -0.0139 0.9980 -0.0609
vn -0.0191 0.9998 -0.0108
vn -0.1048 0.9919 0.0713
vn 0.0804 0.9965 -0.0234
vn 0.0138 0.9928 -0.1190
vn -0.1295 0.9659 -0.2241
vn -0.9892 0.0088 0.1465
vn 0.5232 0.0025 -0.8522
vn 0.0062 1.0000 0.0045
vn 0.0241 0.9992 -0.0317
vn 0.1528 0.9835 -0.0964
vn 0.8216 0.0388 0.5688
vn 0.0407 0.9982 0.0443
vn 0.0520 0.9951 0.0840
vn -0.0115 0.9837 0.1794
vn -0.0414 0.9990 0.0145
vn -0.1069 0.9943 0.0042
vn -0.1919 0.9783 -0.0785
vn -0.8872 0.0378 0.4599
vn -0.0857 0.0175 -0.9962
vn 0.0054 1.0000 -0.0012
vn 0.0457 0.9978 -0.0489
vn 0.1675 0.9803 -0.1046
vn 0.9065 0.0228 0.4215
vn 0.0431 0.9990 -0.0129
vn 0.0950 0.9955 -0.0044
vn 0.1693 0.9819 0.0855
vn -0.0150 0.9993 0.0346
vn -0.0631 0.9950 0.0768
vn -0.1808 0.9795 0.0886
vn 0.0960 0.0360 0.9947
vn -0.8013 0.0207 -0.5979
vn -0.0344 0.9990 -0.0294
vn -0.0589 0.9947 -0.0838
vn -0.0549 0.9745 -0.2176
vn 0.7915 0.0420 -0.6097
vn -0.0829 0.9965 0.0079
vn -0.0325 0.9995 0.0042
vn 0.0579 0.9954 0.0770
vn 0.2554 0.0358 0.9662
vn 0.0268 0.9989 -0.0393
vn -0.0233 0.9997 -0.0018
vn -0.1426 0.9898 0.0024
vn -0.7442 0.0083 -0.6679
usemtl grass
s 1
f 1/1/1 2/2/2 3/3/3
f 4/4/4 5/5/5 6/6/6
f 7/7/7 8/8/8 9/9/9
f 3/3/3 10/10/10 1/1/1
f 9/9/9 11/11/11 7/7/7
f 12/12/12 13/13/13 14/14/14
f 15/15/15 16/16/16 17/17/17
f 6/6/6 18/18/18 4/4/4
f 14/14/14 19/19/19 12/12/12
f 17/17/17 20/20/20 15/15/15
f 21/21/21 22/22/22 23/23/23
f 23/23/23 24/24/24 21/21/21
f 25/25/25 26/26/26 27/27/27
f 28/28/28 29/29/29 30/30/30
f 27/27/27 31/31/31 25/25/25
f 30/30/30 32/32/32 28/28/28
f 33/33/33 34/34/34 35/35/35
f 35/35/35 36/36/36 33/33/33
f 37/37/37 38/38/38 39/39/39
f 40/40/40 41/41/41 42/42/42
f 39/39/39 43/43/43 37/37/37
f 42/42/42 44/44/44 40/40/40
f 45/45/45 46/46/46 47/47/47
f 47/47/47 48/48/48 45/45/45
f 49/49/49 50/50/50 51/51/51
f 52/52/52 53/53/53 54/54/54
f 51/51/51 55/55/55 49/49/49
f 54/54/54 56/56/56 52/52/52
f 57/57/57 58/58/58 59/59/59
f 59/59/59 60/60/60 57/57/57
f 61/61/61 62/62/62 63/63/63
f 64/64/64 65/65/65 66/66/66
f 63/63/63 67/67/67 61/61/61
f 66/66/66 68/68/68 64/64/64
f 69/69/69 70/70/70 71/71/71
f 71/71/71 72/72/72 69/69/69
f 73/73/73 74/74/74 75/75/75
f 76/76/76 77/77/77 78/78/78
f 75/75/75 79/79/79 73/73/73
f 78/78/78 80/80/80 76/76/76
f 81/81/81 82/82/82 83/83/83
f 83/83/83 84/84/84 81/81/81
f 85/85/85 86/86/86 87/87/87
f 88/88/88 89/89/89 90/90/90
f 87/87/87 91/91/91 85/85/85
f 90/90/90 92/92/92 88/88/88
f 93/93/93 94/94/94 95/95/95
f 95/95/95 96/96/96 93/93/93
f 97/97/97 98/98/98 99/99/99
f 100/100/100 101/101/101 102/102/102
f 99/99/99 103/103/103 97/97/97
f 102/102/102 104/104/104 100/100/100
f 105/105/105 106/106/106 107/107/107
f 107/107/107 108/108/108 105/105/105
f 109/109/109 110/110/110 111/111/111
f 112/112/112 113/113/113 114/114/114
f 111/111/111 115/115/115 109/109/109
f 114/114/114 116/116/116 112/112/112
f 117/117/117 118/118/118 119/119/119
f 119/119/119 120/120/120 117/117/117
f 121/121/121 122/122/122 123/123/123
f 124/124/124 125/125/125 126/126/126
f 123/123/123 127/127/127 121/121/121
f 126/126/126 128/128/128 124/124/124
f 129/129/129 130/130/130 131/131/131
f 131/131/131 132/132/132 129/129/129
f 133/133/133 134/134/134 135/135/135
f 136/136/136 137/137/137 138/138/138
f 135/135/135 139/139/139 133/133/133
f 138/138/138 140/140/140 136/136/136
f 141/141/141 142/142/142 143/143/143
f 143/143/143 144/144/144 141/141/141
f 145/145/145 146/146/146 147/147/147
f 148/148/148 149/149/149 150/150/150
f 147/147/147 151/151/151 145/145/145
f 150/150/150 152/152/152 148/148/148
f 153/153/153 154/154/154 155/155/155
f 155/155/155 156/156/156 153/153/153
f 157/157/157 158/158/158 159/159/159
f 160/160/160 161/161/161 162/162/162
f 159/159/159 163/163/163 157/157/157
f 162/162/162 164/164/164 160/160/160
f 165/165/165 166/166/166 167/167/167
f 167/167/167 168/168/168 165/165/165
f 169/169/169 170/170/170 171/171/171
f 172/172/172 173/173/173 174/174/174
f 171/171/171 175/175/175 169/169/169
f 174/174/174 176/176/176 172/172/172
f 177/177/177 178/178/178 179/179/179
f 179/179/179 180/180/180 177/177/177
f 181/181/181 182/182/182 183/183/183
f 184/184/184 185/185/185 186/186/186
f 183/183/183 187/187/187 181/181/181
f 186/186/186 188/188/188 184/184/184
f 189/189/189 190/190/190 191/191/191
f 191/191/191 192/192/192 189/189/189
f 193/193/193 194/194/194 195/195/195
f 195/195/195 196/196/196 193/193/193
f 197/197/197 198/198/198 199/199/199
f 199/199/199 200/200/200 197/197/197
